<svg width="680" height="380" viewBox="0 0 680 380" xmlns="http://www.w3.org/2000/svg" font-family="-apple-system,BlinkMacSystemFont,Segoe UI,Roboto,Helvetica,Arial,sans-serif" role="img">
<title>Bud's Collectibles sitemap</title>
<desc>Home page branches to five main navigation pages: Inventory, Trade info, Shows, Vendor, and Contact. A separate QR Hub page is accessed via QR scan at shows, linked from the Vendor and Shows pages rather than the main navigation.</desc>
<defs>
<marker id="arrow" viewBox="0 0 10 10" refX="8" refY="5" markerWidth="6" markerHeight="6" orient="auto-start-reverse"><path d="M2 1L8 5L2 9" fill="none" stroke="#5F5E5A" stroke-width="1.5" stroke-linecap="round" stroke-linejoin="round"/></marker>
</defs>

<rect x="0" y="0" width="680" height="380" fill="#FAFAF8"/>

<line x1="340" y1="96" x2="340" y2="130" stroke="#888780" stroke-width="1"/>
<line x1="108" y1="130" x2="558" y2="130" stroke="#888780" stroke-width="1"/>
<line x1="108" y1="130" x2="108" y2="150" stroke="#888780" stroke-width="1"/>
<line x1="258" y1="130" x2="258" y2="150" stroke="#888780" stroke-width="1"/>
<line x1="408" y1="130" x2="408" y2="150" stroke="#888780" stroke-width="1"/>
<line x1="558" y1="130" x2="558" y2="150" stroke="#888780" stroke-width="1"/>
<line x1="333" y1="130" x2="333" y2="250" stroke="#888780" stroke-width="1"/>
<path d="M558 206 L543 250" fill="none" stroke="#888780" stroke-width="1" stroke-dasharray="4 3" marker-end="url(#arrow)"/>

<g>
<rect x="250" y="40" width="180" height="56" rx="8" fill="#EEEDFE" stroke="#534AB7" stroke-width="0.5"/>
<text x="340" y="58" text-anchor="middle" dominant-baseline="central" font-size="14" font-weight="500" fill="#3C3489">Home</text>
<text x="340" y="76" text-anchor="middle" dominant-baseline="central" font-size="12" fill="#534AB7">Hero &#183; pillars &#183; shows</text>
</g>

<g>
<rect x="40" y="150" width="136" height="56" rx="8" fill="#E1F5EE" stroke="#0F6E56" stroke-width="0.5"/>
<text x="108" y="168" text-anchor="middle" dominant-baseline="central" font-size="14" font-weight="500" fill="#085041">Inventory</text>
<text x="108" y="186" text-anchor="middle" dominant-baseline="central" font-size="12" fill="#0F6E56">Search &amp; filter</text>
</g>

<g>
<rect x="190" y="150" width="136" height="56" rx="8" fill="#E1F5EE" stroke="#0F6E56" stroke-width="0.5"/>
<text x="258" y="168" text-anchor="middle" dominant-baseline="central" font-size="14" font-weight="500" fill="#085041">Trade info</text>
<text x="258" y="186" text-anchor="middle" dominant-baseline="central" font-size="12" fill="#0F6E56">Buy, sell, trade</text>
</g>

<g>
<rect x="340" y="150" width="136" height="56" rx="8" fill="#E1F5EE" stroke="#0F6E56" stroke-width="0.5"/>
<text x="408" y="168" text-anchor="middle" dominant-baseline="central" font-size="14" font-weight="500" fill="#085041">Shows</text>
<text x="408" y="186" text-anchor="middle" dominant-baseline="central" font-size="12" fill="#0F6E56">Dates &amp; recaps</text>
</g>

<g>
<rect x="490" y="150" width="136" height="56" rx="8" fill="#E1F5EE" stroke="#0F6E56" stroke-width="0.5"/>
<text x="558" y="168" text-anchor="middle" dominant-baseline="central" font-size="14" font-weight="500" fill="#085041">Vendor</text>
<text x="558" y="186" text-anchor="middle" dominant-baseline="central" font-size="12" fill="#0F6E56">Story &amp; reviews</text>
</g>

<g>
<rect x="243" y="250" width="180" height="56" rx="8" fill="#E1F5EE" stroke="#0F6E56" stroke-width="0.5"/>
<text x="333" y="268" text-anchor="middle" dominant-baseline="central" font-size="14" font-weight="500" fill="#085041">Contact</text>
<text x="333" y="286" text-anchor="middle" dominant-baseline="central" font-size="12" fill="#0F6E56">Form &amp; socials</text>
</g>

<g>
<rect x="453" y="250" width="180" height="56" rx="8" fill="#F1EFE8" stroke="#5F5E5A" stroke-width="0.5"/>
<text x="543" y="268" text-anchor="middle" dominant-baseline="central" font-size="14" font-weight="500" fill="#444441">QR Hub</text>
<text x="543" y="286" text-anchor="middle" dominant-baseline="central" font-size="12" fill="#5F5E5A">Accessed via QR scan</text>
</g>

<text x="340" y="340" text-anchor="middle" font-size="12" fill="#5F5E5A">Purple = entry point &#183; Teal = main navigation &#183; Gray = utility access</text>
</svg>
